<?xml version="1.0" standalone="no"?>
<!DOCTYPE svg PUBLIC "-//W3C//DTD SVG 20010904//EN"
 "http://www.w3.org/TR/2001/REC-SVG-20010904/DTD/svg10.dtd">
<svg version="1.0" xmlns="http://www.w3.org/2000/svg"
 width="128.000000pt" height="128.000000pt" viewBox="0 0 128.000000 128.000000"
 preserveAspectRatio="xMidYMid meet">

<g transform="translate(0.000000,128.000000) scale(0.100000,-0.100000)"
fill="#000000" stroke="none">
<path d="M441 927 c-166 -101 -214 -137 -201 -151 14 -12 393 -236 401 -236
15 0 375 218 389 235 11 14 10 19 -6 34 -27 26 -373 231 -387 230 -7 0 -95
-51 -196 -112z m356 -38 c84 -50 153 -95 153 -99 0 -4 -70 -49 -155 -100
l-155 -92 -155 92 c-86 51 -154 96 -153 101 3 7 296 187 308 189 2 0 73 -41
157 -91z"/>
<path d="M244 649 c-3 -6 2 -19 12 -29 23 -21 371 -230 384 -230 13 0 361 209
384 230 20 20 14 40 -12 40 -9 0 -96 -48 -194 -106 l-178 -106 -178 106 c-175
104 -204 117 -218 95z"/>
<path d="M249 504 c-10 -12 -9 -18 7 -33 31 -29 376 -232 389 -229 6 2 98 55
203 118 135 81 192 120 192 133 0 10 -6 20 -13 23 -8 3 -97 -45 -200 -106
l-185 -112 -169 100 c-222 131 -208 125 -224 106z"/>
</g>
</svg>
